<?xml version="1.0" encoding="UTF-8"?>
<svg width="700pt" height="700pt" version="1.1" viewBox="0 0 700 700" xmlns="http://www.w3.org/2000/svg" xmlns:xlink="http://www.w3.org/1999/xlink">
 <defs>
  <symbol id="u" overflow="visible">
   <path d="m5.8125-0.34375c-0.29297 0.15625-0.60547 0.27344-0.9375 0.34375-0.32422 0.082031-0.66406 0.125-1.0156 0.125-1.0547 0-1.8867-0.28906-2.5-0.875-0.61719-0.59375-0.92188-1.3945-0.92188-2.4062 0-1.0078 0.30469-1.8125 0.92188-2.4062 0.61328-0.59375 1.4453-0.89062 2.5-0.89062 0.35156 0 0.69141 0.042969 1.0156 0.125 0.33203 0.085937 0.64453 0.19922 0.9375 0.34375v1.3125c-0.30469-0.19531-0.60156-0.34375-0.89062-0.4375-0.29297-0.10156-0.60156-0.15625-0.92188-0.15625-0.58594 0-1.043 0.1875-1.375 0.5625-0.33594 0.375-0.5 0.89062-0.5 1.5469 0 0.64844 0.16406 1.1562 0.5 1.5312 0.33203 0.375 0.78906 0.5625 1.375 0.5625 0.32031 0 0.62891-0.046875 0.92188-0.14062 0.28906-0.09375 0.58594-0.24219 0.89062-0.45312z"/>
  </symbol>
  <symbol id="a" overflow="visible">
   <path d="m4.2656-3.4531c-0.13672-0.0625-0.27344-0.10938-0.40625-0.14062-0.125-0.03125-0.25781-0.046875-0.39062-0.046875-0.39844 0-0.69922 0.125-0.90625 0.375-0.21094 0.25-0.3125 0.60938-0.3125 1.0781v2.1875h-1.5156v-4.75h1.5156v0.78125c0.19531-0.3125 0.42188-0.53516 0.67188-0.67188 0.25-0.14453 0.55078-0.21875 0.90625-0.21875h0.15625c0.0625 0 0.14844 0.011719 0.26562 0.03125z"/>
  </symbol>
  <symbol id="b" overflow="visible">
   <path d="m5.4688-2.3906v0.4375h-3.5469c0.039063 0.35547 0.17188 0.62109 0.39062 0.79688 0.21875 0.17969 0.52344 0.26562 0.92188 0.26562 0.32031 0 0.64844-0.046875 0.98438-0.14062 0.33203-0.09375 0.67578-0.23438 1.0312-0.42188v1.1719c-0.36719 0.13672-0.73047 0.23438-1.0938 0.29688-0.35547 0.070312-0.71094 0.10938-1.0625 0.10938-0.86719 0-1.5391-0.21875-2.0156-0.65625-0.46875-0.4375-0.70312-1.0508-0.70312-1.8438 0-0.76953 0.23438-1.375 0.70312-1.8125 0.46875-0.44531 1.1094-0.67188 1.9219-0.67188 0.75 0 1.3477 0.22656 1.7969 0.67188 0.44531 0.44922 0.67188 1.0469 0.67188 1.7969zm-1.5625-0.5c0-0.28906-0.085938-0.52344-0.25-0.70312-0.16797-0.17578-0.38672-0.26562-0.65625-0.26562-0.29297 0-0.53125 0.085937-0.71875 0.25-0.1875 0.16797-0.30469 0.40625-0.34375 0.71875z"/>
  </symbol>
  <symbol id="d" overflow="visible">
   <path d="m2.8594-2.1406c-0.3125 0-0.55469 0.058594-0.71875 0.17188-0.15625 0.10547-0.23438 0.26172-0.23438 0.46875 0 0.1875 0.0625 0.33984 0.1875 0.45312 0.13281 0.10547 0.31641 0.15625 0.54688 0.15625 0.28125 0 0.51562-0.097656 0.70312-0.29688 0.19531-0.20703 0.29688-0.46875 0.29688-0.78125v-0.17188zm2.3125-0.5625v2.7031h-1.5312v-0.70312c-0.19922 0.29297-0.42969 0.50781-0.6875 0.64062-0.25 0.125-0.55859 0.1875-0.92188 0.1875-0.49219 0-0.89062-0.14062-1.2031-0.42188-0.30469-0.28906-0.45312-0.66406-0.45312-1.125 0-0.5625 0.1875-0.97266 0.5625-1.2344 0.38281-0.25781 0.98828-0.39062 1.8125-0.39062h0.89062v-0.10938c0-0.23828-0.09375-0.41406-0.28125-0.53125-0.1875-0.11328-0.48047-0.17188-0.875-0.17188-0.33594 0-0.64062 0.039063-0.92188 0.10938-0.27344 0.0625-0.53125 0.15625-0.78125 0.28125v-1.1562c0.33203-0.082031 0.66016-0.14062 0.98438-0.17188 0.33203-0.039063 0.66016-0.0625 0.98438-0.0625 0.85156 0 1.4688 0.16797 1.8438 0.5 0.38281 0.33594 0.57812 0.88672 0.57812 1.6562z"/>
  </symbol>
  <symbol id="c" overflow="visible">
   <path d="m2.3906-6.0938v1.3438h1.5625v1.0781h-1.5625v2.0156c0 0.23047 0.039063 0.38281 0.125 0.45312 0.09375 0.074219 0.26953 0.10938 0.53125 0.10938h0.78125v1.0938h-1.3125c-0.59375 0-1.0156-0.125-1.2656-0.375s-0.375-0.67578-0.375-1.2812v-2.0156h-0.76562v-1.0781h0.76562v-1.3438z"/>
  </symbol>
  <symbol id="m" overflow="visible">
   <path d="m3.9688-4.0625v-2.5312h1.5156v6.5938h-1.5156v-0.6875c-0.21875 0.28125-0.45312 0.49219-0.70312 0.625-0.25 0.125-0.54297 0.1875-0.875 0.1875-0.58594 0-1.0625-0.22656-1.4375-0.6875-0.375-0.46875-0.5625-1.0703-0.5625-1.8125 0-0.72656 0.1875-1.3203 0.5625-1.7812 0.375-0.46875 0.85156-0.70312 1.4375-0.70312 0.33203 0 0.625 0.070313 0.875 0.20312 0.25 0.125 0.48438 0.32422 0.70312 0.59375zm-1.0156 3.0781c0.33203 0 0.58203-0.11328 0.75-0.34375 0.17578-0.23828 0.26562-0.58594 0.26562-1.0469 0-0.44531-0.089844-0.78906-0.26562-1.0312-0.16797-0.23828-0.41797-0.35938-0.75-0.35938-0.3125 0-0.55859 0.12109-0.73438 0.35938-0.16797 0.24219-0.25 0.58594-0.25 1.0312 0 0.46094 0.082031 0.80859 0.25 1.0469 0.17578 0.23047 0.42188 0.34375 0.73438 0.34375z"/>
  </symbol>
  <symbol id="l" overflow="visible">
   <path d="m3.2656-0.98438c0.32031 0 0.56641-0.11328 0.73438-0.34375 0.17578-0.23828 0.26562-0.58594 0.26562-1.0469 0-0.44531-0.089844-0.78906-0.26562-1.0312-0.16797-0.23828-0.41406-0.35938-0.73438-0.35938-0.33594 0-0.58984 0.12109-0.76562 0.35938-0.16797 0.24219-0.25 0.58594-0.25 1.0312 0 0.44922 0.082031 0.79297 0.25 1.0312 0.17578 0.24219 0.42969 0.35938 0.76562 0.35938zm-1.0156-3.0781c0.20703-0.26953 0.4375-0.46875 0.6875-0.59375 0.25781-0.13281 0.55469-0.20312 0.89062-0.20312 0.58203 0 1.0625 0.23438 1.4375 0.70312 0.375 0.46094 0.5625 1.0547 0.5625 1.7812 0 0.74219-0.1875 1.3438-0.5625 1.8125-0.375 0.46094-0.85547 0.6875-1.4375 0.6875-0.33594 0-0.63281-0.0625-0.89062-0.1875-0.25-0.13281-0.48047-0.34375-0.6875-0.625v0.6875h-1.5156v-6.5938h1.5156z"/>
  </symbol>
  <symbol id="k" overflow="visible">
   <path d="m0.10938-4.75h1.5156l1.2812 3.2188 1.0781-3.2188h1.5156l-1.9844 5.2031c-0.21094 0.53125-0.44922 0.89844-0.71875 1.1094-0.26172 0.20703-0.60938 0.3125-1.0469 0.3125h-0.875v-1h0.46875c0.25781 0 0.44531-0.042969 0.5625-0.125 0.11328-0.085938 0.20703-0.23047 0.28125-0.4375l0.03125-0.125z"/>
  </symbol>
  <symbol id="j" overflow="visible">
   <path d="m5.2031-6.1406v1.3438c-0.34375-0.15625-0.68359-0.26953-1.0156-0.34375-0.33594-0.082031-0.64844-0.125-0.9375-0.125-0.39844 0-0.6875 0.058594-0.875 0.17188-0.17969 0.10547-0.26562 0.26562-0.26562 0.48438 0 0.17969 0.0625 0.3125 0.1875 0.40625s0.35156 0.17188 0.6875 0.23438l0.6875 0.14062c0.70703 0.14844 1.207 0.36719 1.5 0.65625 0.30078 0.28125 0.45312 0.6875 0.45312 1.2188 0 0.69922-0.21094 1.2188-0.625 1.5625-0.41797 0.34375-1.0547 0.51562-1.9062 0.51562-0.39844 0-0.79688-0.042969-1.2031-0.125-0.40625-0.070312-0.8125-0.17969-1.2188-0.32812v-1.375c0.40625 0.21094 0.79688 0.37109 1.1719 0.48438 0.38281 0.10547 0.75 0.15625 1.0938 0.15625 0.36328 0 0.64062-0.054688 0.82812-0.17188 0.1875-0.125 0.28125-0.29688 0.28125-0.51562 0-0.19531-0.070313-0.34766-0.20312-0.45312-0.125-0.10156-0.38281-0.20312-0.76562-0.29688l-0.625-0.14062c-0.63672-0.13281-1.1016-0.34766-1.3906-0.64062-0.29297-0.30078-0.4375-0.70312-0.4375-1.2031 0-0.63281 0.20312-1.1172 0.60938-1.4531 0.40625-0.34375 0.98828-0.51562 1.75-0.51562 0.35156 0 0.71094 0.027344 1.0781 0.078125 0.36328 0.054688 0.74219 0.13281 1.1406 0.23438z"/>
  </symbol>
  <symbol id="i" overflow="visible">
   <path d="m0.73438-4.75h1.5156v4.75h-1.5156zm0-1.8438h1.5156v1.2344h-1.5156z"/>
  </symbol>
  <symbol id="h" overflow="visible">
   <path d="m3.8594-6.5938v0.98438h-0.84375c-0.21875 0-0.37109 0.042969-0.45312 0.125-0.085938 0.074219-0.125 0.21094-0.125 0.40625v0.32812h1.2969v1.0781h-1.2969v3.6719h-1.5156v-3.6719h-0.75v-1.0781h0.75v-0.32812c0-0.51953 0.14062-0.89844 0.42188-1.1406 0.28906-0.25 0.73828-0.375 1.3438-0.375z"/>
  </symbol>
  <symbol id="g" overflow="visible">
   <path d="m0.67188-1.8438v-2.9062h1.5312v0.46875 0.98438 0.76562c0 0.38672 0.003906 0.66406 0.015625 0.82812 0.019531 0.16797 0.054688 0.28906 0.10938 0.35938 0.0625 0.10547 0.14062 0.18359 0.23438 0.23438 0.10156 0.054687 0.22266 0.078125 0.35938 0.078125 0.3125 0 0.55469-0.11719 0.73438-0.35938 0.1875-0.23828 0.28125-0.57812 0.28125-1.0156v-2.3438h1.5156v4.75h-1.5156v-0.6875c-0.23047 0.28125-0.47656 0.49219-0.73438 0.625-0.25 0.125-0.53125 0.1875-0.84375 0.1875-0.54297 0-0.96094-0.16406-1.25-0.5-0.29297-0.34375-0.4375-0.83203-0.4375-1.4688z"/>
  </symbol>
  <symbol id="f" overflow="visible">
   <path d="m0.73438-4.75h1.5156v4.6719c0 0.63281-0.15625 1.1172-0.46875 1.4531-0.30469 0.33203-0.74219 0.5-1.3125 0.5h-0.75v-1h0.25c0.28906 0 0.48828-0.070312 0.59375-0.20312 0.11328-0.125 0.17188-0.375 0.17188-0.75zm0-1.8438h1.5156v1.2344h-1.5156z"/>
  </symbol>
  <symbol id="t" overflow="visible">
   <path d="m0.73438-6.5938h1.5156v6.5938h-1.5156z"/>
  </symbol>
  <symbol id="e" overflow="visible">
   <path d="m2.9844-3.7812c-0.33594 0-0.58984 0.125-0.76562 0.375-0.17969 0.24219-0.26562 0.58594-0.26562 1.0312 0 0.46094 0.085937 0.80859 0.26562 1.0469 0.17578 0.24219 0.42969 0.35938 0.76562 0.35938 0.33203 0 0.58594-0.11719 0.76562-0.35938 0.17578-0.23828 0.26562-0.58594 0.26562-1.0469 0-0.44531-0.089844-0.78906-0.26562-1.0312-0.17969-0.25-0.43359-0.375-0.76562-0.375zm0-1.0781c0.82031 0 1.4609 0.21875 1.9219 0.65625 0.45703 0.4375 0.6875 1.0469 0.6875 1.8281s-0.23047 1.3984-0.6875 1.8438c-0.46094 0.4375-1.1016 0.65625-1.9219 0.65625-0.8125 0-1.4531-0.21875-1.9219-0.65625-0.46094-0.44531-0.6875-1.0625-0.6875-1.8438s0.22656-1.3906 0.6875-1.8281c0.46875-0.4375 1.1094-0.65625 1.9219-0.65625z"/>
  </symbol>
  <symbol id="s" overflow="visible">
   <path d="m5.125-3.9688c0.19531-0.28906 0.42578-0.50781 0.6875-0.65625 0.26953-0.15625 0.5625-0.23438 0.875-0.23438 0.55078 0 0.96875 0.16797 1.25 0.5 0.28125 0.33594 0.42188 0.82422 0.42188 1.4688v2.8906h-1.5156v-2.4844-0.10938-0.17188c0-0.33203-0.054688-0.57031-0.15625-0.71875-0.09375-0.15625-0.25-0.23438-0.46875-0.23438-0.29297 0-0.51562 0.12109-0.67188 0.35938-0.15625 0.24219-0.23438 0.58594-0.23438 1.0312v2.3281h-1.5312v-2.4844c0-0.51953-0.046875-0.85156-0.14062-1-0.085937-0.15625-0.24609-0.23438-0.48438-0.23438-0.29297 0-0.51562 0.12109-0.67188 0.35938-0.15625 0.24219-0.23438 0.57812-0.23438 1.0156v2.3438h-1.5312v-4.75h1.5312v0.6875c0.1875-0.25781 0.39844-0.45703 0.64062-0.59375 0.23828-0.13281 0.50391-0.20312 0.79688-0.20312 0.33203 0 0.625 0.078125 0.875 0.23438s0.4375 0.375 0.5625 0.65625z"/>
  </symbol>
  <symbol id="r" overflow="visible">
   <path d="m5.5-2.8906v2.8906h-1.5156v-2.2031c0-0.41406-0.011719-0.70312-0.03125-0.85938-0.023437-0.15625-0.054687-0.26953-0.09375-0.34375-0.0625-0.10156-0.14844-0.17969-0.25-0.23438-0.09375-0.050781-0.21094-0.078125-0.34375-0.078125-0.3125 0-0.5625 0.125-0.75 0.375-0.17969 0.24219-0.26562 0.57422-0.26562 1v2.3438h-1.5156v-6.5938h1.5156v2.5312c0.22656-0.26953 0.46875-0.46875 0.71875-0.59375 0.25781-0.13281 0.54688-0.20312 0.85938-0.20312 0.55078 0 0.96875 0.16797 1.25 0.5 0.28125 0.33594 0.42188 0.82422 0.42188 1.4688z"/>
  </symbol>
  <symbol id="q" overflow="visible">
   <path d="m0.79688-6.3281h1.8281l2.2969 4.3438v-4.3438h1.5469v6.3281h-1.8125l-2.3125-4.3438v4.3438h-1.5469z"/>
  </symbol>
  <symbol id="p" overflow="visible">
   <path d="m5.5-2.8906v2.8906h-1.5156v-2.2188c0-0.40625-0.011719-0.6875-0.03125-0.84375-0.023437-0.15625-0.054687-0.26953-0.09375-0.34375-0.0625-0.10156-0.14844-0.17969-0.25-0.23438-0.09375-0.050781-0.21094-0.078125-0.34375-0.078125-0.3125 0-0.5625 0.125-0.75 0.375-0.17969 0.24219-0.26562 0.57422-0.26562 1v2.3438h-1.5156v-4.75h1.5156v0.6875c0.22656-0.26953 0.46875-0.46875 0.71875-0.59375 0.25781-0.13281 0.54688-0.20312 0.85938-0.20312 0.55078 0 0.96875 0.16797 1.25 0.5 0.28125 0.33594 0.42188 0.82422 0.42188 1.4688z"/>
  </symbol>
  <symbol id="o" overflow="visible">
   <path d="m0.79688-6.3281h2.7188c0.80078 0 1.4141 0.17969 1.8438 0.53125 0.4375 0.35547 0.65625 0.86719 0.65625 1.5312 0 0.66797-0.21875 1.1797-0.65625 1.5312-0.42969 0.35547-1.043 0.53125-1.8438 0.53125h-1.0781v2.2031h-1.6406zm1.6406 1.1719v1.7812h0.89062c0.32031 0 0.56641-0.078125 0.73438-0.23438 0.17578-0.15625 0.26562-0.375 0.26562-0.65625s-0.089844-0.5-0.26562-0.65625c-0.16797-0.15625-0.41406-0.23438-0.73438-0.23438z"/>
  </symbol>
  <symbol id="n" overflow="visible">
   <path d="m4.5625-4.6094v1.25c-0.19922-0.14453-0.40234-0.25-0.60938-0.3125-0.21094-0.070313-0.42969-0.10938-0.65625-0.10938-0.42969 0-0.76172 0.125-1 0.375-0.23047 0.25-0.34375 0.59375-0.34375 1.0312 0 0.44922 0.11328 0.79688 0.34375 1.0469 0.23828 0.24219 0.57031 0.35938 1 0.35938 0.23828 0 0.46094-0.03125 0.67188-0.09375 0.21875-0.070312 0.41406-0.17969 0.59375-0.32812v1.25c-0.23047 0.085938-0.46875 0.14453-0.71875 0.1875-0.24219 0.050781-0.48438 0.078125-0.73438 0.078125-0.85547 0-1.5273-0.21875-2.0156-0.65625-0.48047-0.44531-0.71875-1.0625-0.71875-1.8438s0.23828-1.3906 0.71875-1.8281c0.48828-0.4375 1.1602-0.65625 2.0156-0.65625 0.25 0 0.49219 0.023437 0.73438 0.0625 0.23828 0.042969 0.47656 0.10547 0.71875 0.1875z"/>
  </symbol>
 </defs>
 <g>
  <path d="m599.25 275.53-387.34-168.49 48.637 168.49h338.71zm-338.71 34.738-48.637 166.75 387.34-166.75h-338.71zm-67.742-248.39 496.77 215.38c13.895 5.2109 13.895 24.316 0 31.266l-496.77 213.65c-12.16 6.9492-27.793-5.2109-24.316-19.105l60.793-210.17-60.793-210.17c-3.4727-13.895 10.422-27.793 24.316-20.844z" fill="#233141"/>
  <path d="m114.64 409.27c8.6836 0 17.371 8.6836 17.371 17.371 0 10.422-8.6836 17.371-17.371 17.371h-97.27c-10.422 0-17.371-6.9492-17.371-17.371 0-8.6836 6.9492-17.371 17.371-17.371z" fill="#233141"/>
  <path d="m140.7 275.53c10.422 0 17.371 6.9492 17.371 17.371 0 8.6836-6.9492 17.371-17.371 17.371h-95.535c-10.422 0-17.371-8.6836-17.371-17.371 0-10.422 6.9492-17.371 17.371-17.371z" fill="#233141"/>
  <path d="m114.64 140.04c8.6836 0 17.371 6.9492 17.371 17.371 0 10.422-8.6836 17.371-17.371 17.371h-97.27c-10.422 0-17.371-6.9492-17.371-17.371 0-10.422 6.9492-17.371 17.371-17.371z" fill="#233141"/>
  
 </g>
</svg>
